<svg id="Layer_1" data-name="Layer 1" xmlns="http://www.w3.org/2000/svg" viewBox="0 0 37.05 41.5"><defs><style>.cls-1{fill:#9f8f70;}.cls-2{fill:#fff;}</style></defs><path class="cls-1" d="M24.53,28c3.19.73,2.81,4.77-.86,4.23,1-.47,1.41-1,.65-1.72-1.79,2.21-3.24-2-5.79-2.11-2.56.11-4,4.32-5.79,2.11-.77.7-.37,1.25.64,1.72-3.67.54-4-3.5-.86-4.23-6.88-2.78-7.16,9,2.1,5.78-1.32.89-1.54,4.7.44,4.39,0,0-.81-3,1.72-2.86-2.26,4,1.75,5.07,1.75,6.15,0-1.08,4-2.16,1.74-6.15,2.54-.11,1.73,2.86,1.73,2.86,2,.31,1.75-3.5.43-4.39C31.69,37,31.42,25.26,24.53,28Z"/><path class="cls-2" d="M18.5,1.35a6.12,6.12,0,0,1,1.72.29c.26.08,1.68.65,3.41,1.38,3.19,1.36,3.59,1.52,5,2a56.78,56.78,0,0,0,7.12,1.91,32.64,32.64,0,0,1-.93,6.87,30,30,0,0,1-10.2,16.1A30.07,30.07,0,0,1,18.51,34a30.88,30.88,0,0,1-5.89-3.72,29.53,29.53,0,0,1-9.85-14.4,33.35,33.35,0,0,1-1.45-9A56.32,56.32,0,0,0,8.44,5c1.39-.48,1.8-.63,5-2a21.14,21.14,0,0,1,4.35-1.6,3.68,3.68,0,0,1,.73-.07"/><path d="M18.5,2a5.7,5.7,0,0,1,1.66.28c.24.08,1.61.62,3.27,1.32,3.06,1.31,3.45,1.46,4.78,1.92a58.68,58.68,0,0,0,6.84,1.83,32.23,32.23,0,0,1-.89,6.6,28.91,28.91,0,0,1-9.8,15.46,29,29,0,0,1-5.85,3.94,29.12,29.12,0,0,1-5.66-3.57A28.52,28.52,0,0,1,3.39,16,32.26,32.26,0,0,1,2,7.35,57.63,57.63,0,0,0,8.84,5.52c1.34-.46,1.73-.62,4.78-1.91A21.24,21.24,0,0,1,17.8,2.06,4.23,4.23,0,0,1,18.5,2m0-2a6.09,6.09,0,0,0-1,.09,21.64,21.64,0,0,0-4.61,1.67c-3,1.29-3.38,1.43-4.66,1.86A53.52,53.52,0,0,1,1.3,5.45L0,5.72V6.89a34.15,34.15,0,0,0,1.48,9.65,31,31,0,0,0,16.35,18.7l.74.32.74-.37a30.76,30.76,0,0,0,6.33-4.25A31.08,31.08,0,0,0,36.1,14.43a33.85,33.85,0,0,0,.95-7.59V5.72l-1.29-.27a53.24,53.24,0,0,1-6.9-1.83c-1.28-.43-1.62-.57-4.65-1.86C22.64,1.1,21.09.47,20.75.37A7.55,7.55,0,0,0,18.5,0Z"/></svg>