<svg id="Layer_1" data-name="Layer 1" xmlns="http://www.w3.org/2000/svg" viewBox="0 0 81.13 98.81"><defs><style>.cls-1{fill:#9f8f70;}</style></defs><path class="cls-1" d="M34.28,13.46c-3.18-.73-2.8-4.77.87-4.23-1,.47-1.42,1-.65,1.72,1.78-2.21,3.24,2,5.79,2.11,2.55-.11,4-4.32,5.79-2.11.77-.7.37-1.25-.65-1.72,3.67-.54,4,3.5.87,4.23,6.88,2.78,7.16-9-2.1-5.78,1.32-.89,1.54-4.69-.44-4.39,0,0,.81,3-1.73,2.86,2.27-4-1.74-5.07-1.74-6.15,0,1.08-4,2.16-1.74,6.15-2.54.11-1.73-2.86-1.73-2.86-2-.3-1.76,3.5-.44,4.39C27.12,4.47,27.4,16.24,34.28,13.46Z"/><path class="cls-1" d="M75.24,77a40.59,40.59,0,0,0,0-42.15c.3-6.76-4.37-14.28-14-13.83A40.57,40.57,0,0,0,54,17.66c.19-5.27,7.75-1.09,2.89-.73-.29,3.45,3,1.08,3,1.08,2.53-4.28-5.68-7.07-9-1.32-1-.27-2-.49-3.1-.68a11.7,11.7,0,0,0-3.29-1.24c-.09-1-1.83-1.88-4-1.88s-3.89.83-4,1.88a11,11,0,0,0-3.38,1.31c-1,.18-2,.41-3,.67-3.3-5.82-11.57-3-9,1.26,0,0,3.24,2.37,2.95-1.08-4.88-.36,2.79-4.59,2.89.82a40,40,0,0,0-7,3.31c-10-.6-14.74,7.31-14.24,14.22h0A40.57,40.57,0,0,0,5.89,77L5.8,77C5.3,83.88,10,91.79,20,91.19l.77.21a40.17,40.17,0,0,0,5.84,2.69,5,5,0,0,1,.4.39c-.09,5.44-7.79,1.2-2.89.84.28-3.46-2.95-1.08-2.95-1.08-2.28,3.85,4.12,6.49,7.85,2.8,0,0,2.1-1.56,1.93-1.87a40.28,40.28,0,0,0,19.07,0c-.1.35,1.9,1.71,1.9,1.71,3.71,3.88,10.29,1.23,8-2.67,0,0-3.24-2.38-2.95,1.08,4.89.36-2.81,4.6-2.89-.84a4.78,4.78,0,0,1,.39-.39,40.17,40.17,0,0,0,5.84-2.69l.77-.21c10,.6,14.74-7.31,14.24-14.22ZM2.09,55.85A38.48,38.48,0,1,1,40.57,94.33,38.52,38.52,0,0,1,2.09,55.85Z"/></svg>