<?xml version="1.0" encoding="UTF-8" standalone="no"?>
<svg
   xmlns:dc="http://purl.org/dc/elements/1.1/"
   xmlns:cc="http://creativecommons.org/ns#"
   xmlns:rdf="http://www.w3.org/1999/02/22-rdf-syntax-ns#"
   xmlns:svg="http://www.w3.org/2000/svg"
   xmlns="http://www.w3.org/2000/svg"
   version="1.1"
   viewBox="0 0 81.13 94.02"
   data-name="Layer 1"
   id="Layer_1">
  <metadata
     id="metadata72">
    <rdf:RDF>
      <cc:Work
         rdf:about="">
        <dc:format>image/svg+xml</dc:format>
        <dc:type
           rdf:resource="http://purl.org/dc/dcmitype/StillImage" />
        <dc:title></dc:title>
      </cc:Work>
    </rdf:RDF>
  </metadata>
  <defs
     id="defs63">
    <style
       id="style61">.cls-1{fill:#9f8f70;}</style>
  </defs>
  <path
     style="display:inline;fill:#9f8f70"
     id="path65"
     d="M 75.24,64.15 A 40.59,40.59 0 0 0 75.24,22 C 75.54,15.24 70.87,7.71 61.24,8.17 A 40.27,40.27 0 0 0 54,4.8 c 0.16,-5.32 7.75,-1.12 2.89,-0.76 -0.29,3.46 3,1.08 3,1.08 2.53,-4.29 -5.7,-7.07 -9,-1.29 -1,-0.26 -2,-0.47 -3,-0.65 A 11.48,11.48 0 0 0 44.5,1.88 C 44.34,0.83 42.6,0 40.44,0 c -2.16,0 -3.89,0.83 -4,1.88 A 11.24,11.24 0 0 0 33,3.24 C 32,3.42 31.08,3.64 30.14,3.89 26.83,-2 18.53,0.81 21.07,5.12 c 0,0 3.24,2.38 2.95,-1.08 -4.89,-0.36 2.81,-4.6 2.89,0.84 v 0 a 40.57,40.57 0 0 0 -7,3.27 v 0 C 9.91,7.55 5.17,15.46 5.67,22.37 v 0 a 40.57,40.57 0 0 0 0.2,41.77 L 5.78,64.07 C 5.3,71 10,78.9 20,78.3 l 0.77,0.21 a 40.17,40.17 0 0 0 5.84,2.69 5,5 0 0 1 0.4,0.39 c -0.09,5.44 -7.79,1.2 -2.89,0.84 0.28,-3.45 -2.95,-1.08 -2.95,-1.08 -2.28,3.85 4.12,6.49 7.85,2.8 A 29.37,29.37 0 0 1 25.85,79 38.78,38.78 0 1 1 55.1,79 28.82,28.82 0 0 1 52,84 c 3.71,3.88 10.29,1.23 8,-2.67 0,0 -3.24,-2.37 -2.95,1.08 4.89,0.36 -2.81,4.6 -2.89,-0.84 a 4.78,4.78 0 0 1 0.39,-0.39 40.17,40.17 0 0 0 5.84,-2.69 l 0.77,-0.21 c 10,0.6 14.74,-7.31 14.24,-14.22 z"
     class="cls-1" />
</svg>
