<?xml version="1.0" encoding="UTF-8" standalone="no"?>
<!-- Created with Inkscape (http://www.inkscape.org/) -->

<svg
   xmlns:dc="http://purl.org/dc/elements/1.1/"
   xmlns:cc="http://creativecommons.org/ns#"
   xmlns:rdf="http://www.w3.org/1999/02/22-rdf-syntax-ns#"
   xmlns:svg="http://www.w3.org/2000/svg"
   xmlns="http://www.w3.org/2000/svg"
   xmlns:sodipodi="http://sodipodi.sourceforge.net/DTD/sodipodi-0.dtd"
   xmlns:inkscape="http://www.inkscape.org/namespaces/inkscape"
   width="9.80546mm"
   height="9.4059496mm"
   viewBox="0 0 9.80546 9.4059496"
   version="1.1"
   id="svg89"
   inkscape:version="0.92.2 5c3e80d, 2017-08-06"
   sodipodi:docname="LG-Shield.svg">
  <defs
     id="defs83" />
  <sodipodi:namedview
     id="base"
     pagecolor="#ffffff"
     bordercolor="#666666"
     borderopacity="1.0"
     inkscape:pageopacity="0.0"
     inkscape:pageshadow="2"
     inkscape:zoom="19.5"
     inkscape:cx="13.729871"
     inkscape:cy="21.670545"
     inkscape:document-units="mm"
     inkscape:current-layer="layer1"
     showgrid="false"
     inkscape:window-width="1920"
     inkscape:window-height="1155"
     inkscape:window-x="1200"
     inkscape:window-y="23"
     inkscape:window-maximized="1" />
  <metadata
     id="metadata86">
    <rdf:RDF>
      <cc:Work
         rdf:about="">
        <dc:format>image/svg+xml</dc:format>
        <dc:type
           rdf:resource="http://purl.org/dc/dcmitype/StillImage" />
        <dc:title></dc:title>
      </cc:Work>
    </rdf:RDF>
  </metadata>
  <g
     inkscape:label="Layer 1"
     inkscape:groupmode="layer"
     id="layer1"
     transform="translate(-120.0009,-135.75883)">
    <g
       id="g5402">
      <path
         style="display:inline;fill:#000000;fill-opacity:1;stroke-width:0.26458332"
         inkscape:connector-curvature="0"
         id="path67"
         d="m 124.88511,136.28806 a 1.5583958,1.5583958 0 0 1 0.43656,0.0714 c 0.0662,0.0212 0.42863,0.16668 0.86783,0.35189 0.80963,0.34396 0.91282,0.38365 1.26471,0.50536 a 14.552083,14.552083 0 0 0 1.80975,0.48418 8.5037083,8.5037083 0 0 1 -0.23548,1.74625 7.6279375,7.6279375 0 0 1 -2.59291,4.09046 7.58825,7.58825 0 0 1 -1.54782,1.04511 7.8607708,7.8607708 0 0 1 -1.49754,-0.94721 7.52475,7.52475 0 0 1 -2.50296,-3.65654 8.5513333,8.5513333 0 0 1 -0.37835,-2.27542 14.753167,14.753167 0 0 0 1.82033,-0.48154 c 0.35455,-0.12171 0.45773,-0.1614 1.26471,-0.50536 a 5.5774167,5.5774167 0 0 1 1.10331,-0.40745 1.17475,1.17475 0 0 1 0.18786,-0.0159 m 0,-0.52917 a 1.6113125,1.6113125 0 0 0 -0.26458,0.0238 5.7255833,5.7255833 0 0 0 -1.21973,0.44185 c -0.79375,0.34131 -0.8943,0.37571 -1.23296,0.49213 a 14.1605,14.1605 0 0 1 -1.82298,0.48418 l -0.34396,0.0688 v 0.3122 a 8.969375,8.969375 0 0 0 0.381,2.5453 8.2020833,8.2020833 0 0 0 4.32594,4.9477 l 0.19579,0.0847 0.19579,-0.0979 a 8.0115833,8.0115833 0 0 0 1.67481,-1.12183 8.22325,8.22325 0 0 0 2.76755,-4.36827 8.9773125,8.9773125 0 0 0 0.26458,-2.01083 v -0.29634 l -0.34131,-0.0688 a 14.086417,14.086417 0 0 1 -1.82563,-0.48419 c -0.33867,-0.11641 -0.42862,-0.15081 -1.23031,-0.49212 -0.4154,-0.17463 -0.8255,-0.34131 -0.91546,-0.36777 a 1.9976042,1.9976042 0 0 0 -0.59531,-0.0979 z" />
      <path
         inkscape:connector-curvature="0"
         id="path1579"
         d="m 124.88511,136.28806 c 0.14817,0.003 0.29518,0.027 0.43656,0.0714 0.0662,0.0212 0.42863,0.16668 0.86783,0.35189 0.80963,0.34396 0.91282,0.38365 1.26471,0.50536 0.59222,0.2001 1.19673,0.36182 1.80975,0.48418 -0.0178,0.58867 -0.0967,1.17389 -0.23548,1.74625 -0.39702,1.60895 -1.30722,3.04484 -2.59291,4.09046 -0.47094,0.41077 -0.99081,0.7618 -1.54782,1.04511 -0.53328,-0.25829 -1.03566,-0.57604 -1.49754,-0.94721 -1.18242,-0.93999 -2.05456,-2.2141 -2.50296,-3.65654 -0.2283,-0.7379 -0.35558,-1.50334 -0.37835,-2.27542 0.61641,-0.12159 1.22443,-0.28243 1.82033,-0.48154 0.35455,-0.12171 0.45773,-0.1614 1.26471,-0.50536 0.35238,-0.17432 0.72221,-0.3109 1.10331,-0.40745 0.0621,-0.0103 0.12492,-0.0156 0.18786,-0.0159"
         style="display:inline;fill:#ffffff;fill-opacity:1;stroke:none;stroke-width:0.26458332" />
    </g>
  </g>
</svg>
