<svg id="Layer_1" data-name="Layer 1" xmlns="http://www.w3.org/2000/svg" viewBox="0 0 25.6 28.67"><defs><style>.cls-1{fill:#fff;}</style></defs><path d="M17,19.37c2.2.5,1.94,3.3-.6,2.93.7-.33,1-.71.45-1.2-1.23,1.53-2.24-1.38-4-1.45s-2.77,3-4,1.45c-.53.49-.26.87.45,1.2-2.54.37-2.8-2.43-.6-2.93-4.75-1.92-4.95,6.21,1.45,4-.91.62-1.06,3.25.3,3,0,0-.56-2,1.19-2-1.56,2.76,1.21,3.5,1.21,4.25,0-.75,2.77-1.49,1.2-4.25,1.76-.07,1.2,2,1.2,2,1.36.21,1.21-2.42.3-3C21.9,25.58,21.7,17.45,17,19.37Z"/><path class="cls-1" d="M12.78.93a4.29,4.29,0,0,1,1.19.2c.18.06,1.16.45,2.35,1,2.2.93,2.49,1,3.45,1.37a39.12,39.12,0,0,0,4.92,1.32A23.21,23.21,0,0,1,24,9.53a20.77,20.77,0,0,1-7,11.12,21.2,21.2,0,0,1-4.21,2.84,20.84,20.84,0,0,1-4.07-2.57A20.42,20.42,0,0,1,1.91,11a23.54,23.54,0,0,1-1-6.19A39.12,39.12,0,0,0,5.83,3.46c1-.33,1.25-.44,3.44-1.37a14.75,14.75,0,0,1,3-1.11,3,3,0,0,1,.51,0"/><path d="M12.78,1.38a3.87,3.87,0,0,1,1.14.19c.18.06,1.12.43,2.26.92,2.12.9,2.39,1,3.31,1.32a39.08,39.08,0,0,0,4.72,1.27,22.21,22.21,0,0,1-.61,4.56,20,20,0,0,1-6.77,10.68,20,20,0,0,1-4,2.72,20.16,20.16,0,0,1-3.91-2.47A19.69,19.69,0,0,1,2.34,11a22.54,22.54,0,0,1-1-5.94A40.12,40.12,0,0,0,6.11,3.81C7,3.49,7.3,3.39,9.41,2.49a16,16,0,0,1,2.88-1.07,4.22,4.22,0,0,1,.49,0m0-1.38a4.37,4.37,0,0,0-.72.06A15.2,15.2,0,0,0,8.87,1.22c-2.09.89-2.33,1-3.21,1.28A37.84,37.84,0,0,1,.9,3.77L0,4v.81a23.63,23.63,0,0,0,1,6.67A21.14,21.14,0,0,0,8,21.66a20.58,20.58,0,0,0,4.3,2.68l.51.22.51-.25a21.12,21.12,0,0,0,4.37-2.93A21.43,21.43,0,0,0,24.94,10a23.3,23.3,0,0,0,.66-5.25V4l-.89-.18A37.55,37.55,0,0,1,19.94,2.5c-.88-.3-1.12-.39-3.22-1.28-1.08-.46-2.15-.89-2.38-1A5.09,5.09,0,0,0,12.78,0Z"/></svg>