<svg id="Layer_1" data-name="Layer 1" xmlns="http://www.w3.org/2000/svg" viewBox="0 0 48.14 58.96"><path d="M20.43,8c-1.89-.43-1.66-2.84.52-2.52-.61.28-.84.61-.39,1C21.62,5.19,22.48,7.68,24,7.75s2.37-2.56,3.43-1.25c.46-.42.22-.75-.38-1,2.18-.32,2.4,2.09.51,2.52,4.09,1.65,4.24-5.36-1.3-3.4.83-.47,1-2.82-.2-2.64,0,0,.48,1.76-1,1.7,1.34-2.37-1-3-1-3.65,0,.64-2.38,1.28-1,3.65-1.5.06-1-1.7-1-1.7-1.2-.18-1,2.17-.21,2.64C16.19,2.63,16.34,9.64,20.43,8Z"/><path d="M44.64,46.05a24.06,24.06,0,0,0,0-25,7.65,7.65,0,0,0-8.32-8.21,23.17,23.17,0,0,0-4.28-2c.1-3.16,4.6-.67,1.71-.46-.17,2,1.75.64,1.75.64,1.51-2.54-3.37-4.18-5.34-.76q-.88-.22-1.8-.39a6.89,6.89,0,0,0-2-.77C26.31,8.48,25.27,8,24,8s-2.31.49-2.37,1.11a6.73,6.73,0,0,0-2,.81c-.59.11-1.16.23-1.73.39C15.91,6.83,11,8.47,12.5,11c0,0,1.92,1.41,1.75-.64-2.9-.21,1.67-2.73,1.72.5h0a23.59,23.59,0,0,0-4.13,1.94h0a7.68,7.68,0,0,0-8.44,8.44h0A24.08,24.08,0,0,0,3.5,46.05l-.06,0a7.69,7.69,0,0,0,8.45,8.44l.45.12A24.58,24.58,0,0,0,15.5,56c.15.27.32.54.49.81-.46,2.51-4.42.25-1.66,0,.17-2-1.75-.64-1.75-.64-1.29,2.19,2.1,3.69,4.34,1.92A7.94,7.94,0,0,0,18,56.93l0,0h0l-.14-.22a23.6,23.6,0,0,0,6.16.81,23.85,23.85,0,0,0,6.59-.93,7.1,7.1,0,0,0,.54,1.55c2.23,1.88,5.74.36,4.43-1.86,0,0-1.92-1.41-1.75.64,2.8.21-1.33,2.54-1.68-.18.13-.2.25-.41.37-.61a24.7,24.7,0,0,0,3.3-1.53l.45-.12A7.69,7.69,0,0,0,44.7,46ZM2.17,33.64A21.83,21.83,0,1,1,24,55.47,21.85,21.85,0,0,1,2.17,33.64Z"/></svg>