<svg id="Layer_1" data-name="Layer 1" xmlns="http://www.w3.org/2000/svg" viewBox="0 0 48.14 67.28"><path d="M20.43,8c-1.89-.43-1.66-2.84.52-2.52-.61.28-.84.61-.39,1C21.62,5.19,22.48,7.68,24,7.75s2.37-2.56,3.43-1.25c.46-.42.22-.75-.38-1,2.18-.32,2.4,2.09.51,2.52,4.09,1.65,4.24-5.36-1.3-3.4.83-.47,1-2.82-.2-2.64,0,0,.48,1.76-1,1.7,1.34-2.37-1-3-1-3.65,0,.64-2.38,1.28-1,3.65-1.5.06-1-1.7-1-1.7-1.2-.18-1,2.17-.21,2.64C16.19,2.63,16.34,9.64,20.43,8Z"/><path d="M44.64,46.05a24.06,24.06,0,0,0,0-25,7.65,7.65,0,0,0-8.32-8.21,23.17,23.17,0,0,0-4.28-2c.1-3.16,4.6-.67,1.71-.46-.17,2,1.75.64,1.75.64,1.51-2.54-3.37-4.18-5.34-.76q-.88-.22-1.8-.39a6.89,6.89,0,0,0-2-.77C26.31,8.48,25.27,8,24,8s-2.31.49-2.37,1.11a6.73,6.73,0,0,0-2,.81c-.59.11-1.16.23-1.73.39C15.91,6.83,11,8.47,12.5,11c0,0,1.92,1.41,1.75-.64-2.9-.21,1.67-2.73,1.72.5h0a23.59,23.59,0,0,0-4.13,1.94h0a7.68,7.68,0,0,0-8.44,8.44h0A24.08,24.08,0,0,0,3.5,46.05l-.06,0a7.69,7.69,0,0,0,8.45,8.44l.45.12A24.58,24.58,0,0,0,15.5,56c.15.27.32.54.49.81-.46,2.51-4.42.25-1.66,0,.17-2-1.75-.64-1.75-.64-1.29,2.19,2.1,3.69,4.34,1.92a17.11,17.11,0,0,0,1.16,1.37c-1.31,1.28-.3,4.57,3.72,3.15-.82.47-1,2.82.21,2.63,0,0-.48-1.76,1-1.69-1.35,2.37,1,3,1,3.65,0-.64,2.38-1.28,1-3.65,1.51-.07,1,1.69,1,1.69,1.2.19,1-2.16.21-2.63,4.12,1.46,5.07-2,3.61-3.23.42-.44.81-.89,1.18-1.35,2.23,1.88,5.74.36,4.43-1.86,0,0-1.92-1.41-1.75.64,2.8.21-1.33,2.54-1.68-.18.13-.2.25-.41.37-.61a24.7,24.7,0,0,0,3.3-1.53l.45-.12A7.69,7.69,0,0,0,44.7,46ZM18,56.91h0c-.27-.37-.52-.76-.75-1.15l-.12-.22c-.2-.34-.38-.69-.55-1.05s-.35-.78-.5-1.18c-.08-.22-.16-.45-.23-.67s-.05-.19-.08-.28A16.71,16.71,0,0,1,15.11,48v-.27h0v-.3l.63-.13a24.45,24.45,0,0,0,2.42-.6c.31-.09.62-.18.91-.28l.34-.12.12,0c.23-.09.48-.18.91-.37l.75-.31.13-.06.6-.25a8.26,8.26,0,0,1,1.63-.56,3.31,3.31,0,0,1,.77,0l.21,0a3.71,3.71,0,0,1,.61.13,6.55,6.55,0,0,1,.62.23l1.06.44.49.21,1.16.48.6.21a24.81,24.81,0,0,0,3.33.88l.63.13v.54a15.13,15.13,0,0,1-.13,1.83,16.73,16.73,0,0,1-.33,1.84c-.1.4-.21.78-.34,1.16a15.49,15.49,0,0,1-.67,1.63c0,.09-.09.17-.13.25-.2.39-.4.77-.63,1.14a3.78,3.78,0,0,1-.22.33,15.27,15.27,0,0,1-3.07,3.48c-.54.45-1,.81-1.49,1.13-.25.17-.5.33-.76.48h0c-.26.15-.53.29-.8.43h0l-.36.18-.36-.16a8.09,8.09,0,0,1-.78-.39h0c-.27-.16-.55-.32-.84-.51h0a14.7,14.7,0,0,1-1.35-1c-.17-.13-.33-.27-.49-.41h0L20,59.13h0A14.36,14.36,0,0,1,18,56.91Zm1.25,3.74c.24.21.48.42.74.62s.49.38.74.56C19.72,61.86,19.22,61.27,19.23,60.65Zm8.08,1.17c.31-.24.64-.5,1-.79s.4-.36.6-.54C29,61.19,28.46,61.91,27.31,61.82Zm6.49-8.41a18.14,18.14,0,0,0,1.26-6.68v-.66l-.76-.16a33.93,33.93,0,0,1-4.1-1.08c-.76-.26-1-.34-2.76-1.11-.93-.39-1.85-.76-2.05-.82a4.4,4.4,0,0,0-1.33-.22,3.35,3.35,0,0,0-.63,0,12.68,12.68,0,0,0-2.73,1c-1.8.77-2,.85-2.76,1.11a34.25,34.25,0,0,1-4.09,1.08l-.77.16v.7A19.82,19.82,0,0,0,14,52.49c.09.3.2.59.31.89a22.13,22.13,0,1,1,19.53,0Z"/></svg>